<svg xmlns="http://www.w3.org/2000/svg" xmlns:xlink="http://www.w3.org/1999/xlink" width="120px" height="120px" viewBox="0 0 120 120" version="1.1">
  <title>icon-visual</title>
  <desc>Created with Sketch</desc>
  <defs>
    <linearGradient x1="100%" y1="0%" x2="0%" y2="100%" id="linearGradient-1">
      <stop stop-color="#FFFFFF" stop-opacity="0" offset="0%"></stop>
      <stop stop-color="#FFFFFF" offset="49.9084292%"></stop>
      <stop stop-color="#FFFFFF" stop-opacity="0" offset="100%"></stop>
    </linearGradient>
  </defs>
  <g id="19.11.19--icon" stroke="none" stroke-width="1" fill="none" fill-rule="evenodd">
    <g id="画板" transform="translate(-212.000000, -714.000000)">
      <g id="标尺" transform="translate(157.000000, 217.000000)"></g>
      <g id="icon_home1" transform="translate(212.000000, 714.000000)">
        <g class="trans scale_small">
          <path d="M60,6.95235027 L14.0593877,33.4761751 L14.0593877,86.5238249 L60,113.04765 L105.940612,86.5238249 L105.940612,33.4761751 L60,6.95235027 Z" id="5" stroke="#FFFFFF" opacity="0.2"></path>
          <circle id="5" stroke="#FFFFFF" opacity="0.2" cx="60" cy="60" r="23.875"></circle>
        </g>
        <g class="trans scale_middle">
          <path d="M23.625,23.125 C23.3488576,23.125 23.125,23.3488576 23.125,23.625 L23.125,96.375 C23.125,96.6511424 23.3488576,96.875 23.625,96.875 L96.375,96.875 C96.6511424,96.875 96.875,96.6511424 96.875,96.375 L96.875,23.625 C96.875,23.3488576 96.6511424,23.125 96.375,23.125 L23.625,23.125 Z" id="4" stroke="url(#linearGradient-1)" transform="translate(60.000000, 60.000000) rotate(45.000000) translate(-60.000000, -60.000000) "></path>
        </g>
        <path class="trans arc_top" d="M113.625,60 C97.6191798,43.75 79.7441798,35.625 60,35.625 C40.2558202,35.625 22.3808202,43.75 6.375,60" id="3" stroke="#FFFFFF"></path>
        <g class="trans scale_big">
          <g id="2" transform="translate(34.000000, 27.500000)">
            <path d="M25.901454,0.571566867 L15.1868375,62.7163426 C15.1774538,62.7707681 15.2139673,62.8224956 15.2683928,62.8318793 C15.2740046,62.8328469 15.2796889,62.8333333 15.2853835,62.8333333 L36.7146165,62.8333333 C36.769845,62.8333333 36.8146165,62.7885618 36.8146165,62.7333333 C36.8146165,62.7276387 36.8141301,62.7219545 36.8131625,62.7163426 L26.098546,0.571566867 C26.0891623,0.517141408 26.0374348,0.480627847 25.9830093,0.490011547 C25.9413063,0.497201729 25.9086442,0.529863815 25.901454,0.571566867 Z" id="路径-3" fill="#3A32DC"></path>
            <path d="M25.8708796,0.748898237 L15.1881869,62.7085162 C15.1788032,62.7629417 15.1270756,62.7994552 15.0726502,62.7900715 C15.0649496,62.7887438 15.0574313,62.7865182 15.0502489,62.78344 L0.0944790665,56.3738244 C0.0437160882,56.3520688 0.0202009313,56.2932809 0.0419564934,56.2425179 C0.0423178017,56.2416749 0.0426906919,56.2408368 0.043075058,56.240004 L25.6815377,0.690001727 C25.7046816,0.639856515 25.7640942,0.617967662 25.8142394,0.641111607 C25.8553385,0.660080393 25.8785705,0.704291106 25.8708796,0.748898237 Z" id="路径-3" fill="#4740F0"></path>
            <path d="M26.3106854,0.647261233 L51.9597205,54.0827509 C51.9824179,54.1300373 51.9647228,54.1868251 51.919182,54.2128484 L36.9572449,62.7625267 C36.9092932,62.7899277 36.8482077,62.773268 36.8208067,62.7253163 C36.8150301,62.7152072 36.8110633,62.704167 36.809085,62.6926931 L26.1219871,0.707525031 C26.1126034,0.653099572 26.1491169,0.601372028 26.2035424,0.591988328 C26.2475966,0.584392775 26.2913405,0.606959364 26.3106854,0.647261233 Z" id="路径-3" fill="#2923BE"></path>
          </g>
        </g>
        <path class="trans arc_bottom" d="M6.375,60 C22.3808202,76.25 40.2558202,84.375 60,84.375 L60,84.375 C79.7441798,84.375 97.6191798,76.25 113.625,60" id="1" stroke="#FFFFFF"></path>
      </g>
    </g>
  </g>
</svg>
