<svg xmlns="http://www.w3.org/2000/svg" xmlns:xlink="http://www.w3.org/1999/xlink" width="120px" height="120px" viewBox="0 0 120 120" version="1.1">
  <title>icon-analyze</title>
  <desc>Created with Sketch.</desc>
  <defs>
    <linearGradient x1="66.7270542%" y1="63.8190774%" x2="29.0657439%" y2="73.8539752%" id="linearGradient-1">
      <stop stop-color="#FBFCFD" offset="0%"></stop>
      <stop stop-color="#DBEFFF" stop-opacity="0.5" offset="100%"></stop>
    </linearGradient>
    <linearGradient x1="44.1465045%" y1="70.4956055%" x2="61.9939685%" y2="65.6041762%" id="linearGradient-2">
      <stop stop-color="#FBFCFD" offset="0%"></stop>
      <stop stop-color="#DBEFFF" stop-opacity="0.5" offset="100%"></stop>
    </linearGradient>
  </defs>
  <g id="19.11.19--icon" stroke="none" stroke-width="1" fill="none" fill-rule="evenodd">
    <g id="画板" transform="translate(-352.000000, -714.000000)">
      <g id="标尺" transform="translate(157.000000, 217.000000)"></g>
      <g id="icon_home2" transform="translate(352.000000, 714.000000)">
        <path class="test" d="M6.375,86 L114.120117,76.8744507 L6.375,86 Z" id="3" stroke="#FFFFFF" opacity="0.2"></path>
        <g class="polygon">
          <polygon id="2" fill="#3A32DC" transform="translate(66.597934, 54.066548) rotate(16.000000) translate(-66.597934, -54.066548) " points="88.2190171 59.02055 66.101851 65.3625454 44.976851 49.1125454 67.0940171 42.77055"></polygon>
          <polygon id="2" fill="#4740F0" transform="translate(51.062500, 68.125000) rotate(16.000000) translate(-51.062500, -68.125000) " points="40.5 45.375 61.625 61.625 61.625 90.875 40.5 74.625"></polygon>
          <polygon id="2" fill="#2923BE" transform="translate(70.480511, 78.846671) rotate(16.000000) translate(-70.480511, -78.846671) " points="81.5390939 61.0506732 59.4219278 67.3926685 59.4219278 96.6426685 81.5390939 90.3006732"></polygon>
        </g>
        <path class="test" d="M59.717532,5.17798187 L6.375,86 L6.375,86 L77.7099417,115.182476 C77.7610583,115.203387 77.8194484,115.178901 77.8403597,115.127785 C77.8473286,115.11075 77.8494609,115.092122 77.8465217,115.073953 L60.0818873,5.25621255 C60.0642486,5.14717305 59.9615556,5.07307809 59.8525161,5.09071684 C59.797298,5.09964918 59.7483438,5.13129724 59.717532,5.17798187 Z" id="1" stroke="url(#linearGradient-1)"></path>
        <path class="test" d="M114.120117,76.8744507 L78.014073,115.102753 C77.9761509,115.142904 77.9128602,115.144711 77.8727092,115.106789 C77.8567287,115.091695 77.8461666,115.071757 77.8426564,115.050058 L60.1295651,5.55094793 C60.1119264,5.44190843 60.1860213,5.33921542 60.2950608,5.32157668 C60.3684428,5.30970606 60.4423544,5.339514 60.4869701,5.39897215 L114.120117,76.8744507 L114.120117,76.8744507 Z" id="1" stroke="url(#linearGradient-2)"></path>
      </g>
    </g>
  </g>
</svg>
