<?xml version="1.0" encoding="UTF-8"?>
<svg width="54px" height="26px" viewBox="0 0 54 26" version="1.1" xmlns="http://www.w3.org/2000/svg" xmlns:xlink="http://www.w3.org/1999/xlink">
    <title>LOGO-白</title>
    <g id="页面-1" stroke="none" stroke-width="1" fill="none" fill-rule="evenodd">
        <g id="20.02.03-首页" transform="translate(-30.000000, -12.000000)" fill="#FFFFFF" fill-rule="nonzero">
            <g id="LOGO-白" transform="translate(30.000000, 12.000000)">
                <g id="编组-10" transform="translate(19.866747, 5.686165)">
                    <path d="M-2.66453526e-15,3.51677473 L-2.66453526e-15,1.93514861 L0.808098592,1.93514861 L0.808098592,0.0488650029 L2.3918854,0.0488650029 L2.3918854,1.93947 L4.8853233,1.93947 L4.8853233,0.0488650029 L6.43237836,0.0488650029 L6.43237836,1.93947 L7.29665493,1.93947 L7.29665493,3.52109612 L6.43237836,3.52109612 L6.43237836,7.75172992 C6.45185327,8.36401612 6.39671005,8.97639602 6.26816581,9.57535348 C6.14460948,10.0672225 5.94485033,10.5367294 5.67613636,10.9668388 C5.48023367,11.2650142 5.21662932,11.6179271 4.8853233,12.0255776 C5.59837094,12.5378876 6.39538853,12.9217723 7.24047695,13.1599405 L7.24047695,14.6983528 C6.43717932,14.5211436 5.65755765,14.2499078 4.91773367,13.8902542 C4.47023177,13.6527036 4.03732221,13.3886288 3.62131882,13.0994412 C2.52160503,13.8469866 1.29534749,14.3887362 0.00216069142,14.6983528 L0.00216069142,13.1599405 C0.864611627,12.9109334 1.68265635,12.5281585 2.42645647,12.0255776 C1.38992606,10.9873128 0.80852389,9.57966662 0.810259283,8.11256539 L0.810259283,3.52109612 L-2.66453526e-15,3.51677473 Z M3.61267606,11.048945 C4.45966709,10.073753 4.88388284,9.22532147 4.8853233,8.50365053 L4.8853233,3.51677473 L2.3918854,3.51677473 L2.3918854,8.27029586 C2.38945886,8.87512961 2.54274308,9.47040811 2.83698784,9.998849 C3.06426859,10.3709425 3.32383114,10.722328 3.61267606,11.048945 L3.61267606,11.048945 Z M10.3605154,0.0445436201 L13.7916933,0.0445436201 C14.3230643,0.0466347519 14.8310694,0.263238148 15.2004641,0.645215835 C15.6344388,1.095657 15.8621198,1.70593591 15.8292254,2.33055514 L15.8292254,12.5527863 C15.8356797,13.0948224 15.6062124,13.6128981 15.2004641,13.9723605 C15.0067757,14.1474403 14.7883644,14.2930479 14.5522567,14.4044988 C14.3680584,14.5017007 14.1657699,14.5598127 13.9580666,14.5751934 L10.4339789,14.5751934 C9.71711826,14.6001324 9.04275697,14.2356798 8.67085467,13.6223285 C8.42298029,13.2362925 8.29723154,12.7845006 8.31001921,12.3259137 L8.31001921,2.75621135 C8.30660838,2.44306439 8.32103636,2.12997734 8.35323303,1.81847128 C8.42854845,1.25551114 8.73760646,0.750350344 9.20454545,0.426986002 C9.53755096,0.176770789 9.94401227,0.0438161537 10.3605154,0.0488650029 L10.3605154,0.0445436201 Z M14.2497599,11.8311153 L14.2497599,2.87288869 C14.2497599,2.38457243 14.1575704,2.04318318 13.9731914,1.84872096 C13.8199402,1.68674221 13.6039399,1.59923841 13.381162,1.60888421 L10.8704385,1.60888421 C10.6147095,1.60357909 10.3671477,1.69903397 10.181178,1.87464925 C9.99394377,2.0602366 9.89690466,2.31821863 9.91541293,2.58119535 L9.91541293,11.6841883 C9.9051114,11.9119565 9.91960113,12.1401697 9.95862676,12.3648061 C10.0681097,12.7697866 10.4526095,13.0376608 10.8704385,13.0000494 L13.3379481,13.0000494 C13.9386204,13.0000494 14.2389565,12.6104047 14.2389565,11.8311153 L14.2497599,11.8311153 Z" id="形状"></path>
                    <path d="M17.6053137,14.6248893 L17.6053137,13.3608848 C17.8019366,13.3608848 17.8991677,13.2355647 17.8991677,13.0000494 L17.8991677,12.7839802 L17.8991677,5.26909548 L19.1631722,5.26909548 L19.1631722,12.8444796 C19.1631722,13.492687 18.9751921,13.9658784 18.6035531,14.2878215 C18.3231182,14.5182827 17.9680527,14.6381749 17.6053137,14.6248893 L17.6053137,14.6248893 Z M17.7868118,1.59159868 L17.7868118,0.00132979163 L23.5990717,0.00132979163 L23.5990717,1.59159868 L17.7868118,1.59159868 Z M17.7868118,4.12825041 L17.7868118,2.53798152 L23.5990717,2.53798152 L23.5990717,4.12825041 L21.5096831,4.12825041 L21.5096831,14.6248893 L19.928057,14.6248893 L19.928057,4.12825041 L17.7868118,4.12825041 Z M22.2918534,14.5211761 L22.2918534,5.2626134 L23.5882682,5.2626134 L23.5882682,14.5254975 L22.2918534,14.5211761 Z M24.7680058,14.6248893 L24.7680058,13.0130135 C26.4115717,12.5592683 27.3658771,10.8969764 27.6309219,8.02613773 L28.0954706,2.96363773 L29.6943822,2.96363773 L29.2039052,8.42154426 C29.0713828,9.92394503 28.7732074,11.1159265 28.309379,11.9974886 C27.7475992,13.0648701 27.0086428,13.8160705 26.0925096,14.2510897 C25.6713661,14.436882 25.226252,14.5627068 24.7701665,14.6248893 L24.7680058,14.6248893 Z M24.7680058,10.3035065 L24.7680058,1.59375937 C24.7522631,1.17886226 24.9005212,0.774451469 25.1806978,0.468039139 C25.4562153,0.16358143 25.8505381,-0.00597736523 26.2610435,0.00349048305 L31.5568982,0.00349048305 C32.0286831,-0.0257125199 32.4934069,0.129195429 32.8533131,0.435628767 C33.1414052,0.689149894 33.2854513,1.13929394 33.2854513,1.78606091 L33.2854513,10.3143099 L31.7038252,10.3143099 L31.7038252,2.45587525 C31.7187924,2.27630725 31.7012253,2.09551209 31.6519686,1.92218447 C31.568261,1.73037489 31.3794097,1.60588542 31.1701344,1.60456283 L27.0432138,1.60456283 C26.8639223,1.59234066 26.6865736,1.64785849 26.5462548,1.76013261 C26.4269519,1.93305927 26.3747207,2.1435205 26.3993278,2.35216206 L26.3993278,10.3143099 L24.7680058,10.3035065 Z M29.3767606,7.44923312 L30.9065301,7.44923312 L30.9065301,12.2632536 C30.9065301,12.589518 30.9713508,12.7991051 31.103153,12.8898541 C31.2230875,12.9490595 31.3564187,12.9758747 31.4899168,12.967639 L33.4777529,12.967639 L33.4777529,14.5838362 L30.8114597,14.5838362 C30.4327584,14.5938365 30.0673217,14.4440545 29.8045775,14.1711441 C29.5168025,13.871646 29.3611408,13.4692605 29.3724392,13.0540667 L29.3767606,7.44923312 Z" id="形状"></path>
                </g>
                <path d="M9.5634905,6.65579232 L9.5634905,15.304824 C9.56372709,16.1594455 9.10769349,16.9491788 8.36738566,17.3761708 L6.37447183,18.5277113 L6.37447183,9.87867964 C6.37423525,9.02405817 6.83026884,8.23432488 7.57057668,7.80733281 L9.5634905,6.65579232" id="路径"></path>
                <path d="M14.5047756,3.80367964 L10.5831207,6.06754408 L10.5831207,15.304824 C10.5812905,16.5229987 9.93143864,17.6481863 8.8772008,18.2585432 L6.3816022,19.7042078 L6.3816022,24.2337193 C6.38182103,24.575415 6.56416208,24.8910846 6.86004222,25.0619967 C7.15592236,25.2329089 7.52047074,25.2331443 7.8165714,25.0626145 L14.7507703,21.0589613 C15.49054,20.6314311 15.9463767,19.8420389 15.9468876,18.9876145 L15.9468876,4.63079232 C15.9486323,4.2867247 15.7652584,3.96828479 15.466793,3.79710067 C15.1683275,3.62591655 14.8008719,3.62842948 14.5047756,3.80367964 L14.5047756,3.80367964 Z" id="路径"></path>
                <path d="M7.06076154,6.92674302 L9.55636013,5.48107841 L9.55636013,0.951566963 C9.55435114,0.61260758 9.37323176,0.299986027 9.08017529,0.12964695 C8.78711881,-0.0406921269 8.42583024,-0.0433451932 8.13030379,0.122671717 L1.19432228,4.12632489 C0.454969796,4.55403905 -0.00023655243,5.34351632 9.09494702e-13,6.19767172 L9.09494702e-13,20.5544939 C0.00156458831,20.893591 0.182744562,21.2064535 0.476077234,21.3765865 C0.769409907,21.5467194 1.13094208,21.5486299 1.42605643,21.3816066 L5.34771136,19.1177421 L5.34771136,9.87867964 C5.35128303,8.65957427 6.00406146,7.53470322 7.06076154,6.92674302 L7.06076154,6.92674302 Z" id="路径"></path>
            </g>
        </g>
    </g>
</svg>
